<?xml version="1.0" encoding="utf-8"?>
<!-- Generator: Adobe Illustrator 17.0.0, SVG Export Plug-In . SVG Version: 6.00 Build 0)  -->
<!DOCTYPE svg PUBLIC "-//W3C//DTD SVG 1.1//EN" "http://www.w3.org/Graphics/SVG/1.1/DTD/svg11.dtd">
<svg version="1.1" id="Layer_1" xmlns="http://www.w3.org/2000/svg" xmlns:xlink="http://www.w3.org/1999/xlink" x="0px" y="0px"
	 width="1400px" height="980px" viewBox="0 0 1400 980" enable-background="new 0 0 1400 980" xml:space="preserve">
<rect id="XMLID_2_" fill-rule="evenodd" clip-rule="evenodd" fill="#003399" width="1400" height="980"/>
<g id="XMLID_259_">
	<path id="XMLID_3_" fill-rule="evenodd" clip-rule="evenodd" fill="#003EBA" d="M700,110.1c217.5,0,393.8,170.1,393.8,379.9
		S917.5,869.9,700,869.9S306.2,699.8,306.2,490S482.5,110.1,700,110.1L700,110.1z"/>
	<path id="XMLID_5_" fill="#003399" d="M518.8,796.7V439.8h-74.4V420h74.4v-43.7h-74.4v-19.8h74.4V219.5h167.7
		c107.2,0,209.5,7.1,226.5,137.1h76.8v19.8h-75c0.4,6.6,0.6,13.5,0.6,20.7c0,8-0.3,15.7-0.8,23h75.2v19.8h-77.3
		C894.6,561.6,796.8,579,691.4,579h-68.1v217.7H518.8z M623.3,356.6h175.5c-22.2-42.3-81.1-39.4-125-39.4h-50.5V356.6z M805.6,376.4
		H623.3V420h182.4c1.3-6.4,2-13.5,2-21.4C807.7,390.4,807,383,805.6,376.4L805.6,376.4z M799,439.8H623.3v41.1h57.2
		C723.3,480.9,778,480.4,799,439.8L799,439.8z"/>
</g>
<g id="XMLID_279_">
	<polygon id="XMLID_9_" fill-rule="evenodd" clip-rule="evenodd" fill="#336699" points="154.6,340.8 341.1,428.8 389,552.8 
		214.1,575.6 	"/>
	<polygon id="XMLID_10_" fill-rule="evenodd" clip-rule="evenodd" fill="#FFFFFF" points="414.4,626.3 518.6,572.6 389,552.8 
		214.1,575.6 	"/>
	<polygon id="XMLID_11_" fill-rule="evenodd" clip-rule="evenodd" fill="#FFFFFF" points="154.6,340.8 149.7,353.7 204.4,570.8 
		214.1,575.6 	"/>
	<polygon id="XMLID_12_" fill-rule="evenodd" clip-rule="evenodd" fill="#80ABD6" points="414.4,626.3 409.5,639.2 217,586.6 
		214.1,575.6 	"/>
	<polygon id="XMLID_13_" fill-rule="evenodd" clip-rule="evenodd" fill="#336699" points="414.4,626.3 409.5,639.2 514,579.5 
		518.6,572.6 	"/>
	<polygon id="XMLID_14_" fill-rule="evenodd" clip-rule="evenodd" fill="#80ABD6" points="170.2,356.4 336.6,432.3 380.4,546.2 
		221.7,560.1 	"/>
	<polygon id="XMLID_15_" fill-rule="evenodd" clip-rule="evenodd" fill="#FFFFFF" points="378.9,546.4 221.7,560.1 170.7,358.2 
		335.6,433.4 	"/>
	<polygon id="XMLID_16_" fill-rule="evenodd" clip-rule="evenodd" fill="#80ABD6" points="343.7,596.4 448,565.9 386.5,555.2 
		252.1,576.3 	"/>
	<polygon id="XMLID_17_" fill-rule="evenodd" clip-rule="evenodd" fill="#B2D1F0" points="445.2,565.4 386.5,555.2 255.6,575.7 
		343.7,595 	"/>
	<polygon id="XMLID_18_" fill-rule="evenodd" clip-rule="evenodd" fill="#80ABD6" points="430.7,599.1 465.3,583.5 428.3,576.3 
		385.4,589.8 	"/>
	<polygon id="XMLID_19_" fill-rule="evenodd" clip-rule="evenodd" fill="#B2D1F0" points="430.7,599.1 464.3,583.9 428.3,576.9 
		386.6,590.1 	"/>
	<path id="XMLID_21_" fill-rule="evenodd" clip-rule="evenodd" fill="#80ABD6" d="M442.3,601.4l15.8-8.2l-4.6-0.8l-17.1,7.8
		L442.3,601.4z M461.1,591.6l12.4-6.5l-3.1-0.6l-13.2,6.3L461.1,591.6z"/>
	<path id="XMLID_24_" fill-rule="evenodd" clip-rule="evenodd" fill="#B2D1F0" d="M457.4,593.1l-4-0.7l-16.4,7.6l5.3,1L457.4,593.1z
		 M461.1,591.2l11.7-6.2l-2.5-0.5l-12.5,6L461.1,591.2z"/>
</g>
<g id="XMLID_278_">
	<polygon id="XMLID_26_" fill-rule="evenodd" clip-rule="evenodd" fill="#336699" points="1245.4,340.8 1058.9,428.8 1011,552.8 
		1185.9,575.6 	"/>
	<polygon id="XMLID_27_" fill-rule="evenodd" clip-rule="evenodd" fill="#FFFFFF" points="985.6,626.3 881.4,572.6 1011,552.8 
		1185.9,575.6 	"/>
	<polygon id="XMLID_28_" fill-rule="evenodd" clip-rule="evenodd" fill="#FFFFFF" points="1245.4,340.8 1250.3,353.7 1195.6,570.8 
		1185.9,575.6 	"/>
	<polygon id="XMLID_29_" fill-rule="evenodd" clip-rule="evenodd" fill="#80ABD6" points="985.6,626.3 990.5,639.2 1183,586.6 
		1185.9,575.6 	"/>
	<polygon id="XMLID_30_" fill-rule="evenodd" clip-rule="evenodd" fill="#336699" points="985.6,626.3 990.5,639.2 886,579.5 
		881.4,572.6 	"/>
	<polygon id="XMLID_31_" fill-rule="evenodd" clip-rule="evenodd" fill="#80ABD6" points="1229.8,356.4 1063.4,432.3 1019.6,546.2 
		1178.3,560.1 	"/>
	<polygon id="XMLID_32_" fill-rule="evenodd" clip-rule="evenodd" fill="#FFFFFF" points="1021.1,546.4 1178.3,560.1 1229.4,358.2 
		1064.5,433.4 	"/>
	<polygon id="XMLID_33_" fill-rule="evenodd" clip-rule="evenodd" fill="#80ABD6" points="1056.3,596.4 952,565.9 1013.5,555.2 
		1147.9,576.3 	"/>
	<polygon id="XMLID_34_" fill-rule="evenodd" clip-rule="evenodd" fill="#B2D1F0" points="954.8,565.4 1013.5,555.2 1144.4,575.7 
		1056.3,595 	"/>
	<polygon id="XMLID_35_" fill-rule="evenodd" clip-rule="evenodd" fill="#80ABD6" points="969.3,599.1 934.7,583.5 971.8,576.3 
		1014.7,589.8 	"/>
	<polygon id="XMLID_36_" fill-rule="evenodd" clip-rule="evenodd" fill="#B2D1F0" points="969.3,599.1 935.7,583.9 971.8,576.9 
		1013.5,590.1 	"/>
	<path id="XMLID_38_" fill-rule="evenodd" clip-rule="evenodd" fill="#80ABD6" d="M957.7,601.4l-15.7-8.2l4.6-0.8l17.1,7.8
		L957.7,601.4z M938.9,591.6l-12.4-6.5l3.2-0.6l13.1,6.3L938.9,591.6z"/>
	<path id="XMLID_41_" fill-rule="evenodd" clip-rule="evenodd" fill="#B2D1F0" d="M942.6,593.1l4-0.7l16.4,7.6l-5.3,1L942.6,593.1z
		 M938.9,591.2l-11.7-6.2l2.6-0.5l12.5,6L938.9,591.2z"/>
</g>
<g id="XMLID_280_">
	<path id="XMLID_43_" fill-rule="evenodd" clip-rule="evenodd" fill="#FFCC99" d="M481,446c16.1,13.8,61.1,16.8,57.6-4.8
		c-2.5-15.2-45.9,11.8-58.7-30.6c-9-29.7,58.5-38.8,61.3,4.2c1.3,19.7,22.6,13.7,18.7-8.3c-6.9-39.2-77.8-67.7-112.6-6.2
		c-10,7.5-16.1,8.4-28.4,13.6c-1.8,7.9-3.5,15.8-5.3,23.6c5.8,2.3,12,15.9,17.8,18.3c5.7-2.3,11.4-4.5,17.2-6.8
		C459.1,449.8,472.5,449.3,481,446L481,446z"/>
	<path id="XMLID_44_" fill-rule="evenodd" clip-rule="evenodd" fill="#003333" d="M268.3,438.7c-18.3,3.9-17.6,59.2,22.9,72.2
		c52.3-8.5,101.4-22.6,147.3-45.8c-5.5-22.3-14.9-44.6-25-63.6C368.3,421.8,319.2,432.4,268.3,438.7L268.3,438.7z"/>
	<path id="XMLID_45_" fill-rule="evenodd" clip-rule="evenodd" fill="#FFFFFF" d="M437.8,462.4c1.7-0.8,3.4-1.7,5.1-2.6
		c-5.1-20.6-13.8-41.2-23.1-58.8c-1.8,0.8-3.6,1.6-5.4,2.3C423.8,421.2,432.4,441.8,437.8,462.4L437.8,462.4z"/>
	<path id="XMLID_46_" fill-rule="evenodd" clip-rule="evenodd" fill="#FFFF00" d="M424.9,457.1c1.9,0,3.4,1.5,3.4,3.4
		c0,1.9-1.5,3.4-3.4,3.4c-1.9,0-3.4-1.5-3.4-3.4C421.5,458.6,423,457.1,424.9,457.1L424.9,457.1z"/>
	<path id="XMLID_47_" fill-rule="evenodd" clip-rule="evenodd" fill="#FFFF00" d="M407.8,463.9c1.9,0,3.4,1.5,3.4,3.4
		c0,1.9-1.5,3.4-3.4,3.4s-3.4-1.5-3.4-3.4C404.4,465.5,405.9,463.9,407.8,463.9L407.8,463.9z"/>
	<path id="XMLID_48_" fill-rule="evenodd" clip-rule="evenodd" fill="#CCFF66" d="M552.6,402.2c-19.6,4.9-40.3,6.4-58.7,13.4
		c0.5,2,0.8,6.9,1,10.6c31.1,17.4,73.2,69.2,113.3,80.1c15.5-10.4,29.3-27.9,51.1-42.6c-1.4-8.2-2.2-14.6-2.2-19
		C601.3,443.1,587.2,417.4,552.6,402.2L552.6,402.2z"/>
	<path id="XMLID_49_" fill-rule="evenodd" clip-rule="evenodd" fill="#669933" d="M552.6,402.2c-19.6,4.9-40.3,6.4-58.7,13.4
		c34.5,14.9,74.4,64.1,114.1,73c10-11.2,32-28.4,49-43.9C601.3,443.1,587.2,417.4,552.6,402.2L552.6,402.2z"/>
	<path id="XMLID_50_" fill-rule="evenodd" clip-rule="evenodd" fill="#CCFF66" d="M551.2,395.6c-19.3,6.3-39.9,10.5-57.8,18.8
		c36.7,10,67.5,58.4,112.8,67.4c11.8-16,34.4-32,51.6-47.9C602.2,436.2,586.8,408.4,551.2,395.6L551.2,395.6z"/>
	<path id="XMLID_51_" fill-rule="evenodd" clip-rule="evenodd" fill="#669933" d="M543.7,400.8c-3.8,1.1-7.6,2.2-11.3,3.3
		c-7.7,2.2-15.6,4.4-23.2,7c0.5,0.8,0.9,1.8,0.9,2.7c0.1,1.4-0.4,2.8-1.3,4c6.4,3.4,12.5,7.6,18.3,11.8c11,8.2,21.3,17.2,32.2,25.5
		c11,8.4,22.9,16.2,35.9,20.9c2.4-1.7,5.7-2.9,9.5-3.1c1.9-0.1,3.7,0,5.4,0.3c2.9-3.2,6.1-6.3,9.2-9.2c6-5.5,12.2-10.8,18.5-16.1
		c2.8-2.4,5.7-4.8,8.5-7.1c-2-1.1-3.4-2.6-4.1-4.2c-10-0.7-20-2.6-29.6-6.1c-11.4-4.1-21.3-10-31.6-16.4c-7.9-4.9-15.6-9.5-24-13.2
		c-1.6,0.5-3.3,0.8-5.1,0.9C548.8,402,546,401.6,543.7,400.8L543.7,400.8z"/>
	<path id="XMLID_52_" fill-rule="evenodd" clip-rule="evenodd" fill="#CCFF66" d="M569.8,417.8c13.8-1,25.5,5.1,26.1,13.7
		c0.6,8.5-10.1,16.2-23.9,17.2c-13.8,1-25.5-5.1-26.1-13.7C545.3,426.4,556,418.7,569.8,417.8L569.8,417.8z"/>
	<path id="XMLID_54_" fill="#CCFF66" d="M526.3,413.5l12-4.2l-1.9-1l0.9-0.3l1.9,1l2.8-1l-1.9-1l0.9-0.3l1.9,0.9l4.2-1.5l4.7,2.4
		c2.8,1.4,5.3,2.9,2.1,4.6l1.9,0.9l-0.9,0.3l-1.8-0.9c-0.4,0.2-0.8,0.4-1.3,0.5c-0.5,0.2-1,0.3-1.5,0.5l1.8,0.9l-0.9,0.4l-2-1
		c-4.4,0.9-7.5-0.2-10.2-1.5l-1.9-1l-7.8,2.8L526.3,413.5z M545.9,409.1l4.4,2.2c-0.1-0.7-1.4-1.3-2.3-1.8l-1.4-0.7L545.9,409.1z
		 M549.9,411.9l-5-2.5l-2.8,1l4.9,2.5c0.5-0.1,1-0.2,1.6-0.4S549.7,412.1,549.9,411.9L549.9,411.9z M545.6,412.9l-4.3-2.2l-0.7,0.2
		l1.6,0.8C543.1,412.2,544.3,412.7,545.6,412.9L545.6,412.9z"/>
	<path id="XMLID_59_" fill="#CCFF66" d="M589.6,459.5l12.7-9.8l-2.9-0.5l0.9-0.8l2.9,0.6l2.9-2.3l-2.9-0.6l0.9-0.7l2.9,0.5l4.4-3.4
		l7.2,1.3c4.3,0.8,8.2,1.8,5.1,5.1l2.9,0.5l-1,0.8l-2.7-0.5c-0.4,0.4-0.8,0.7-1.3,1.1c-0.6,0.4-1.1,0.8-1.7,1.2l2.8,0.5l-1,0.7
		l-3-0.6c-5,2.8-9.5,2.5-13.7,1.8l-2.9-0.5l-8.3,6.4L589.6,459.5z M611.7,446.8l6.7,1.2c-0.5-0.8-2.4-1.1-3.9-1.4l-2.2-0.4
		L611.7,446.8z M618.3,448.9l-7.6-1.4l-3,2.3l7.6,1.4c0.6-0.2,1.2-0.6,1.8-1.1C617.8,449.6,618.2,449.2,618.3,448.9L618.3,448.9z
		 M613.5,451.7l-6.6-1.2l-0.7,0.5l2.5,0.5C610,451.7,611.7,452.1,613.5,451.7L613.5,451.7z"/>
	<path id="XMLID_63_" fill-rule="evenodd" clip-rule="evenodd" fill="#FFCC99" d="M525.7,389.7c8.3,4.5,14.5,12.6,15.4,25.1
		c1.3,19.7,22.6,13.7,18.7-8.3c-2.8-16.1-16.5-30.4-34.1-37.4V389.7z"/>
</g>
<g id="XMLID_281_">
	<path id="XMLID_64_" fill-rule="evenodd" clip-rule="evenodd" fill="#FFCC99" d="M906.8,446c-16.1,13.8-63.9,5.8-60.4-15.9
		c2.5-15.2,52,15.2,61.6-19.6c8.2-29.9-58.5-38.8-61.3,4.2c-1.3,19.7-22.6,13.7-18.7-8.3c6.9-39.2,77.8-67.7,112.6-6.2
		c10,7.5,16.1,8.4,28.3,13.6c1.8,7.9,3.5,15.8,5.3,23.6c-5.8,2.3-12,15.9-17.8,18.3c-5.7-2.3-11.4-4.5-17.2-6.8
		C928.7,449.8,915.4,449.3,906.8,446L906.8,446z"/>
	<path id="XMLID_65_" fill-rule="evenodd" clip-rule="evenodd" fill="#000066" d="M1119.5,438.7c18.3,3.9,17.6,59.2-22.9,72.2
		c-52.3-8.5-101.4-22.6-147.3-45.8c5.5-22.3,14.9-44.6,25-63.6C1019.5,421.8,1068.6,432.4,1119.5,438.7L1119.5,438.7z"/>
	<path id="XMLID_66_" fill-rule="evenodd" clip-rule="evenodd" fill="#FFFFFF" d="M950,462.4c-1.7-0.8-3.4-1.7-5.1-2.6
		c5.1-20.6,13.8-41.2,23.1-58.8c1.8,0.8,3.6,1.6,5.4,2.3C964,421.2,955.4,441.8,950,462.4L950,462.4z"/>
	<path id="XMLID_67_" fill-rule="evenodd" clip-rule="evenodd" fill="#FFFF00" d="M962.9,457.1c-1.9,0-3.4,1.5-3.4,3.4
		c0,1.9,1.5,3.4,3.4,3.4c1.9,0,3.4-1.5,3.4-3.4C966.3,458.6,964.8,457.1,962.9,457.1L962.9,457.1z"/>
	<path id="XMLID_68_" fill-rule="evenodd" clip-rule="evenodd" fill="#FFFF00" d="M980.1,463.9c-1.9,0-3.4,1.5-3.4,3.4
		c0,1.9,1.5,3.4,3.4,3.4c1.9,0,3.4-1.5,3.4-3.4C983.5,465.5,981.9,463.9,980.1,463.9L980.1,463.9z"/>
	<path id="XMLID_69_" fill="#BFE2F5" d="M863,472.8c-0.1,2.5,3.7,2.6,3.8,0.1c0.1-2,0.3-4.8,0.6-7.9c1.4-17.3,3.7-45-16.9-48.9
		c-16-3-22.8,24.5-24.9,35.9c-1.5,7.7-2.1,15.2-2.2,20.7c0,2.5,3.8,2.5,3.8,0c0-5.2,0.7-12.5,2.1-20c1.6-8.8,7.8-35.2,20.5-32.9
		c17.3,3.2,15.1,28.8,13.8,44.8C863.2,467.7,863,470.5,863,472.8L863,472.8z"/>
	<polygon id="XMLID_70_" fill-rule="evenodd" clip-rule="evenodd" fill="#FF00FF" points="795.8,471.8 850.8,461.8 846.9,581.9 
		782.9,555.8 	"/>
	<polygon id="XMLID_71_" fill-rule="evenodd" clip-rule="evenodd" fill="#BFE2F5" points="846.9,581.9 881.4,572.6 871.2,462.1 
		858.2,465.5 850.8,461.8 	"/>
	<path id="XMLID_72_" fill="#FFFFFF" d="M801.7,475.2c0.1,2.5,3.8,2.4,3.8-0.1c-0.2-8,3.9-25.4,11.8-39.2
		c13.8-23.9,32.2-31,22.7,10.1c-2,8.3-3.9,16.6-3.8,22.8c0,2.5,3.8,2.5,3.8,0c0-5.7,1.9-13.8,3.8-21.9
		c11.1-47.8-14.3-39.4-29.7-12.8C805.8,448.4,801.5,466.8,801.7,475.2L801.7,475.2z"/>
	<polygon id="XMLID_73_" fill-rule="evenodd" clip-rule="evenodd" fill="#FFFFFF" points="846.9,581.9 881.4,572.6 871.2,462.1 
		858.2,465.5 861.6,566.2 	"/>
	<path id="XMLID_74_" fill-rule="evenodd" clip-rule="evenodd" fill="#FFCC99" d="M862,389.7c-8.2,4.5-14.5,12.6-15.3,25.1
		c-1.3,19.7-22.6,13.7-18.7-8.3c2.8-16.1,16.5-30.4,34.1-37.4V389.7z"/>
</g>
<g id="XMLID_267_">
	<path id="XMLID_75_" fill-rule="evenodd" clip-rule="evenodd" fill="#CCFF66" d="M407.7,780.4c-3.1,13.3-7.8,26.6-9.2,39.8
		c18.5-17.6,57-18.6,77.9-41.5c-5.1-12.3-6.5-30.9-9.7-46.3C448.7,765.1,427.3,764.4,407.7,780.4L407.7,780.4z"/>
	<path id="XMLID_76_" fill-rule="evenodd" clip-rule="evenodd" fill="#669933" d="M408,786.6c-0.7,2.6-1.4,5.1-2.1,7.6
		c-1.4,5.2-2.9,10.5-4,15.8c0.7,0,1.3,0.1,1.9,0.4c0.8,0.4,1.5,1.2,1.9,2.1c4.2-2.5,8.7-4.6,13.1-6.4c8.5-3.5,17.3-6.3,25.8-9.7
		c8.6-3.5,17.2-7.6,24.5-13.4c-0.2-2,0.3-4.3,1.5-6.5c0.6-1.2,1.3-2.2,2.1-3c-0.8-2.8-1.5-5.7-2.1-8.5c-1.1-5.4-2-10.8-2.8-16.2
		c-0.4-2.5-0.8-4.9-1.2-7.3c-1.3,0.8-2.6,1.1-3.8,0.9c-3.9,5.5-8.4,10.6-13.8,14.9c-6.3,5.2-13.2,8.8-20.4,12.5
		c-5.5,2.9-10.9,5.7-15.9,9.2c-0.2,1.1-0.6,2.2-1.2,3.3C410.5,784,409.3,785.5,408,786.6L408,786.6z"/>
	<path id="XMLID_77_" fill-rule="evenodd" clip-rule="evenodd" fill="#CCFF66" d="M426.8,777.4c4.2-8.3,11.8-12.9,16.9-10.3
		c5.1,2.6,5.8,11.4,1.6,19.7c-4.2,8.3-11.8,12.8-16.9,10.3C423.3,794.5,422.6,785.7,426.8,777.4L426.8,777.4z"/>
	<path id="XMLID_79_" fill="#CCFF66" d="M409.3,800.9l1.7-8.4l-1.2,0.8l0.1-0.6l1.2-0.8l0.4-1.9l-1.2,0.7l0.1-0.6l1.2-0.7l0.6-2.9
		l3-1.9c1.8-1.2,3.5-2.1,3.4,0.4l1.2-0.8l-0.1,0.6l-1.1,0.7c0,0.3-0.1,0.6-0.2,0.9c-0.1,0.4-0.1,0.7-0.2,1l1.2-0.7l-0.1,0.6
		l-1.2,0.8c-1,2.8-2.7,4.2-4.4,5.3l-1.2,0.8l-1.1,5.5L409.3,800.9z M413.5,788.2l2.8-1.8c-0.4-0.2-1.2,0.4-1.8,0.7l-0.9,0.6
		L413.5,788.2z M416.5,786.8l-3.1,2l-0.4,2l3.1-2c0.1-0.3,0.2-0.7,0.3-1C416.6,787.3,416.6,787,416.5,786.8L416.5,786.8z
		 M415.6,789.6l-2.8,1.8l-0.1,0.5l1-0.7C414.4,790.8,415.1,790.4,415.6,789.6L415.6,789.6z"/>
	<path id="XMLID_84_" fill="#CCFF66" d="M457.7,780.5l-1.2-10.7l-1.3,1.5l-0.1-0.8l1.3-1.5l-0.3-2.5l-1.3,1.5l-0.1-0.8l1.3-1.5
		l-0.4-3.7l3.2-3.7c2-2.2,3.9-4.1,4.7-1.1l1.3-1.5l0.1,0.8l-1.3,1.4c0.1,0.4,0.1,0.7,0.2,1.2c0.1,0.5,0.1,0.9,0.1,1.4l1.3-1.4
		l0.1,0.8l-1.3,1.5c-0.1,3.8-1.9,6.3-3.7,8.5l-1.3,1.5l0.8,7L457.7,780.5z M458,763.3l3-3.5c-0.6,0-1.4,1-2.1,1.8l-1,1.1L458,763.3z
		 M461.5,760.3l-3.4,3.9l0.3,2.5l3.4-3.9c0.1-0.4,0.1-0.9,0-1.4C461.8,760.8,461.7,760.5,461.5,760.3L461.5,760.3z M461.5,764
		l-3,3.4l0.1,0.6l1.1-1.3C460.3,766,461.1,765.2,461.5,764L461.5,764z"/>
</g>
<g id="XMLID_263_">
	<path id="XMLID_88_" fill-rule="evenodd" clip-rule="evenodd" fill="#CCFF66" d="M1025.3,115.8c-13,4.2-26.8,7-38.8,12.5
		c24.6,6.8,45.3,39.3,75.7,45.5c8-10.7,23.2-21.4,34.8-32.1C1059.4,143.2,1049.1,124.5,1025.3,115.8L1025.3,115.8z"/>
	<path id="XMLID_89_" fill-rule="evenodd" clip-rule="evenodd" fill="#669933" d="M1020.2,119.3c-2.6,0.7-5.1,1.4-7.6,2.2
		c-5.2,1.4-10.5,2.9-15.6,4.7c0.4,0.5,0.6,1.2,0.6,1.8c0.1,0.9-0.2,1.9-0.8,2.7c4.3,2.3,8.4,5.1,12.3,7.9
		c7.4,5.5,14.3,11.5,21.6,17.1c7.4,5.6,15.3,10.9,24,14.1c1.6-1.1,3.8-1.9,6.4-2.1c1.3-0.1,2.5,0,3.6,0.2c2-2.1,4.1-4.2,6.2-6.1
		c4-3.7,8.3-7.2,12.5-10.7c1.9-1.6,3.8-3.2,5.7-4.8c-1.4-0.7-2.3-1.7-2.7-2.8c-6.8-0.5-13.4-1.8-19.9-4.1c-7.7-2.8-14.3-6.8-21.2-11
		c-5.3-3.3-10.4-6.4-16.1-8.9c-1,0.3-2.2,0.6-3.4,0.6C1023.6,120.1,1021.8,119.9,1020.2,119.3L1020.2,119.3z"/>
	<path id="XMLID_90_" fill-rule="evenodd" clip-rule="evenodd" fill="#CCFF66" d="M1037.7,130.7c9.3-0.7,17.1,3.5,17.5,9.2
		c0.4,5.7-6.8,10.9-16.1,11.6c-9.3,0.6-17.1-3.5-17.5-9.2C1021.2,136.5,1028.4,131.4,1037.7,130.7L1037.7,130.7z"/>
	<path id="XMLID_92_" fill="#CCFF66" d="M1008.5,127.8l8.1-2.8l-1.3-0.7l0.6-0.2l1.3,0.7l1.9-0.7l-1.3-0.7l0.6-0.2l1.3,0.7l2.8-1
		l3.2,1.6c1.9,1,3.5,1.9,1.4,3.1l1.3,0.6l-0.6,0.2l-1.2-0.6c-0.3,0.1-0.6,0.2-0.9,0.3c-0.3,0.1-0.7,0.2-1,0.3l1.2,0.6l-0.6,0.2
		l-1.3-0.7c-2.9,0.6-5-0.1-6.9-1.1l-1.3-0.7l-5.3,1.9L1008.5,127.8z M1021.6,124.8l3,1.5c-0.1-0.5-0.9-0.8-1.6-1.2l-0.9-0.5
		L1021.6,124.8z M1024.3,126.7l-3.3-1.7l-1.9,0.7l3.3,1.7c0.4,0,0.7-0.1,1.1-0.2C1023.9,127,1024.2,126.9,1024.3,126.7L1024.3,126.7
		z M1021.4,127.4l-2.9-1.5l-0.4,0.2l1,0.5C1019.8,126.9,1020.5,127.3,1021.4,127.4L1021.4,127.4z"/>
	<path id="XMLID_97_" fill="#CCFF66" d="M1050.9,158.8l8.6-6.6l-2-0.3l0.7-0.5l2,0.4l2-1.5l-2-0.4l0.6-0.5l2,0.3l3-2.3l4.8,0.9
		c2.9,0.6,5.5,1.2,3.4,3.5l2,0.4l-0.6,0.5l-1.9-0.4c-0.2,0.2-0.5,0.5-0.9,0.7c-0.4,0.3-0.7,0.6-1.1,0.8l1.9,0.3l-0.6,0.5l-2-0.4
		c-3.3,1.9-6.4,1.7-9.2,1.2l-2-0.3l-5.6,4.3L1050.9,158.8z M1065.8,150.3l4.5,0.8c-0.3-0.6-1.6-0.7-2.6-0.9l-1.5-0.3L1065.8,150.3z
		 M1070.3,151.7l-5.1-0.9l-2,1.5l5.1,0.9c0.4-0.2,0.8-0.4,1.2-0.7C1069.9,152.2,1070.1,151.9,1070.3,151.7L1070.3,151.7z
		 M1067,153.6l-4.4-0.8l-0.5,0.4l1.6,0.3C1064.6,153.6,1065.8,153.8,1067,153.6L1067,153.6z"/>
</g>
<g id="XMLID_268_">
	<path id="XMLID_101_" fill-rule="evenodd" clip-rule="evenodd" fill="#CCFF66" d="M968.6,739.4c-6.4,12-14.5,23.6-19.3,36
		c22.4-12.2,59.9-3.1,86-19.7c-1.7-13.2,1.9-31.5,2.8-47.2C1012.2,735.3,991.8,729,968.6,739.4L968.6,739.4z"/>
	<path id="XMLID_102_" fill-rule="evenodd" clip-rule="evenodd" fill="#669933" d="M967.3,745.4c-1.3,2.3-2.6,4.6-4,6.9
		c-2.8,4.7-5.5,9.3-8,14.2c0.6,0.2,1.2,0.5,1.7,0.9c0.7,0.6,1.1,1.5,1.3,2.5c4.7-1.3,9.6-2.2,14.4-2.8c9.1-1.1,18.3-1.5,27.4-2.6
		c9.2-1.1,18.6-2.8,27.1-6.5c0.3-1.9,1.4-4.1,3.1-6c0.8-0.9,1.8-1.8,2.8-2.4c-0.1-2.9,0-5.8,0.2-8.7c0.3-5.5,0.9-10.9,1.5-16.4
		c0.3-2.5,0.5-4.9,0.8-7.4c-1.5,0.4-2.8,0.4-3.9-0.1c-5.2,4.3-10.9,8-17.2,10.8c-7.5,3.3-15,5-22.9,6.7c-6.1,1.3-12,2.6-17.8,4.7
		c-0.5,1-1.2,2-2,2.8C970.4,743.6,968.9,744.7,967.3,745.4L967.3,745.4z"/>
	<path id="XMLID_103_" fill-rule="evenodd" clip-rule="evenodd" fill="#CCFF66" d="M987.9,741.5c6.2-6.9,14.7-9.3,19-5.5
		c4.2,3.9,2.7,12.6-3.6,19.5c-6.2,6.9-14.7,9.3-19,5.5C980,757,981.6,748.3,987.9,741.5L987.9,741.5z"/>
	<path id="XMLID_105_" fill="#CCFF66" d="M964.8,759.6l3.9-7.7l-1.4,0.4l0.3-0.6l1.4-0.4l0.9-1.8l-1.4,0.4l0.3-0.6l1.4-0.4l1.3-2.7
		l3.4-1c2-0.6,3.9-1.1,3.1,1.3l1.4-0.4l-0.3,0.6l-1.3,0.4c-0.1,0.3-0.2,0.5-0.4,0.8c-0.2,0.4-0.4,0.7-0.5,0.9l1.3-0.4l-0.3,0.6
		l-1.4,0.4c-1.7,2.5-3.7,3.4-5.7,4l-1.4,0.4l-2.5,5L964.8,759.6z M972.2,748.4l3.2-1c-0.3-0.3-1.2,0-1.9,0.2l-1,0.3L972.2,748.4z
		 M975.5,747.8l-3.6,1.1l-0.9,1.8l3.5-1.1c0.2-0.3,0.4-0.6,0.6-0.9C975.4,748.3,975.5,748.1,975.5,747.8L975.5,747.8z M973.9,750.3
		l-3.1,0.9l-0.2,0.4l1.1-0.4C972.3,751.2,973.1,750.9,973.9,750.3L973.9,750.3z"/>
	<path id="XMLID_110_" fill="#CCFF66" d="M1016.9,752.5l1.6-10.7l-1.6,1.1l0.1-0.8l1.6-1.1l0.4-2.5l-1.7,1.1l0.1-0.8l1.6-1.1
		l0.6-3.7l4.1-2.7c2.5-1.6,4.8-3,4.9,0.1l1.6-1.1l-0.1,0.8l-1.6,1c0,0.3-0.1,0.7-0.1,1.1c-0.1,0.5-0.2,0.9-0.3,1.4l1.6-1l-0.1,0.8
		l-1.7,1.1c-1.1,3.7-3.4,5.6-5.8,7.2l-1.6,1.1l-1,7L1016.9,752.5z M1021.7,736l3.8-2.5c-0.6-0.2-1.6,0.6-2.5,1.1l-1.3,0.8
		L1021.7,736z M1025.9,734l-4.3,2.8l-0.4,2.5l4.3-2.8c0.1-0.4,0.3-0.9,0.3-1.4C1025.9,734.6,1025.9,734.3,1025.9,734L1025.9,734z
		 M1024.8,737.7l-3.8,2.5l-0.1,0.6l1.4-0.9C1023.2,739.3,1024.1,738.6,1024.8,737.7L1024.8,737.7z"/>
</g>
<g id="XMLID_272_">
	<path id="XMLID_114_" fill-rule="evenodd" clip-rule="evenodd" fill="#CCFF66" d="M203.3,171.1c-0.2,6.7-1.4,13.2-0.5,20.1
		c9.1-6.8,32.6-1.7,42.5-11c-4.7-7.4-7.9-17.6-11.9-26.4C226.6,168.9,213.3,165.4,203.3,171.1L203.3,171.1z"/>
	<path id="XMLID_115_" fill-rule="evenodd" clip-rule="evenodd" fill="#669933" d="M204.3,174.5c-0.1,1.3-0.2,2.6-0.3,3.8
		c-0.2,2.6-0.4,5.2-0.4,7.9c0.4,0.1,0.8,0.2,1.2,0.5c0.6,0.4,1,0.8,1.4,1.4c2.2-0.8,4.7-1.2,7.2-1.5c4.8-0.6,9.8-0.9,14.6-1.5
		c4.9-0.6,9.6-1.5,13.3-3.6c-0.4-1.1-0.4-2.3,0.1-3.3c0.2-0.5,0.5-1,0.9-1.3c-0.9-1.6-1.6-3.3-2.4-4.9c-1.4-3-2.6-6.1-3.8-9.2
		c-0.6-1.4-1.1-2.8-1.7-4.1c-0.7,0.2-1.5,0.2-2.2-0.1c-1.7,2.4-3.8,4.5-6.5,6.1c-3.2,1.9-6.9,2.8-10.9,3.8c-3,0.7-5.9,1.5-8.6,2.7
		c0,0.5-0.1,1.1-0.3,1.6C205.5,173.5,205,174.1,204.3,174.5L204.3,174.5z"/>
	<path id="XMLID_116_" fill-rule="evenodd" clip-rule="evenodd" fill="#CCFF66" d="M214.7,172.3c1.5-3.8,5.6-5.2,9.1-3
		c3.5,2.1,5.1,7,3.5,10.9c-1.5,3.9-5.6,5.2-9.1,3.1C214.8,181,213.1,176.2,214.7,172.3L214.7,172.3z"/>
	<path id="XMLID_118_" fill="#CCFF66" d="M207,182.5l0-4.3l-0.6,0.2v-0.3l0.6-0.2v-1l-0.6,0.2v-0.4l0.6-0.2V175l1.6-0.6
		c1-0.4,1.9-0.6,2.1,0.7l0.6-0.2v0.3l-0.6,0.2c0,0.1,0,0.3,0,0.5c0,0.2,0,0.4,0,0.5l0.6-0.2v0.3l-0.7,0.2c-0.2,1.4-1.1,1.9-2.1,2.2
		l-0.6,0.2v2.8L207,182.5z M207.9,176.2l1.5-0.5c-0.3-0.2-0.7,0-1,0.1l-0.5,0.2V176.2z M209.6,175.9l-1.7,0.6l0,1l1.6-0.6
		c0.1-0.2,0.1-0.4,0.1-0.6C209.6,176.2,209.6,176,209.6,175.9L209.6,175.9z M209.4,177.3l-1.5,0.5v0.2l0.5-0.2
		C208.8,177.7,209.2,177.6,209.4,177.3L209.4,177.3z"/>
	<path id="XMLID_123_" fill="#CCFF66" d="M234.1,178.5l-2.1-6l-0.6,0.6l-0.2-0.5l0.6-0.6l-0.5-1.4l-0.6,0.6l-0.1-0.5l0.6-0.6
		l-0.7-2.1l1.5-1.5c0.9-0.9,1.8-1.6,2.8,0.1l0.6-0.6l0.1,0.5l-0.6,0.6c0.1,0.2,0.1,0.4,0.2,0.6c0.1,0.3,0.2,0.5,0.2,0.8l0.6-0.6
		l0.2,0.5l-0.6,0.6c0.4,2-0.3,3.1-1.2,4l-0.6,0.6l1.4,3.9L234.1,178.5z M232.1,169.3l1.4-1.4c-0.4-0.1-0.8,0.4-1.1,0.6l-0.5,0.5
		L232.1,169.3z M233.8,168.1l-1.6,1.6l0.5,1.4l1.6-1.6c0-0.2-0.1-0.5-0.2-0.8C234,168.5,233.9,168.3,233.8,168.1L233.8,168.1z
		 M234.3,170.2l-1.4,1.4l0.1,0.3l0.5-0.5C233.8,171.1,234.1,170.7,234.3,170.2L234.3,170.2z"/>
</g>
<g id="XMLID_265_">
	<path id="XMLID_127_" fill-rule="evenodd" clip-rule="evenodd" fill="#CCFF66" d="M289.1,839.7c5.5-5.3,11.7-9.5,16.5-15.8
		c-12.7-1.8-27.6-24.7-43-25.1c-2.1,9.7-7.7,20.5-11.6,30.8C268.6,822.9,276.4,836.3,289.1,839.7L289.1,839.7z"/>
	<path id="XMLID_128_" fill-rule="evenodd" clip-rule="evenodd" fill="#669933" d="M291,836.2c1.1-1,2.2-1.9,3.3-2.9
		c2.2-1.9,4.5-3.9,6.7-6c-0.3-0.4-0.5-0.8-0.6-1.4c-0.2-0.7-0.2-1.5,0-2.3c-2.4-1.2-4.8-2.8-7-4.6c-4.4-3.3-8.6-7.1-12.9-10.5
		c-4.4-3.4-9-6.4-13.6-7.7c-0.6,1.1-1.5,2.1-2.7,2.6c-0.6,0.3-1.2,0.4-1.8,0.4c-0.6,2-1.3,4-2,5.8c-1.3,3.6-2.8,7-4.2,10.4
		c-0.7,1.5-1.3,3.1-2,4.7c0.7,0.4,1.3,1,1.7,1.9c3.3-0.6,6.6-0.6,10.1,0.3c4.1,1.1,7.8,3.3,11.8,5.7c3,1.9,5.9,3.6,9,4.8
		c0.5-0.4,0.9-0.8,1.5-1C289.2,836,290.1,836,291,836.2L291,836.2z"/>
	<path id="XMLID_129_" fill-rule="evenodd" clip-rule="evenodd" fill="#CCFF66" d="M280.9,829.7c-4.3,1.9-8.6-0.3-9.7-4.8
		c-1-4.5,1.5-9.7,5.9-11.6c4.3-1.9,8.6,0.3,9.7,4.8C287.8,822.6,285.2,827.8,280.9,829.7L280.9,829.7z"/>
	<path id="XMLID_131_" fill="#CCFF66" d="M295.2,827.7l-3.4,3.5l0.7,0.3l-0.2,0.3l-0.7-0.4l-0.8,0.8l0.7,0.4l-0.2,0.2l-0.7-0.3
		l-1.2,1.2l-1.8-0.8c-1-0.5-2-1-1.1-2.3l-0.7-0.3l0.3-0.2l0.7,0.3c0.1-0.1,0.2-0.2,0.4-0.4c0.1-0.2,0.3-0.3,0.4-0.4l-0.7-0.3
		l0.3-0.2l0.7,0.3c1.3-0.9,2.4-0.6,3.4-0.1l0.7,0.3l2.2-2.2L295.2,827.7z M289.4,832l-1.6-0.7c0.1,0.3,0.6,0.5,0.9,0.7l0.5,0.2
		L289.4,832z M287.8,830.9l1.9,0.9l0.8-0.8l-1.8-0.8c-0.2,0.1-0.3,0.2-0.5,0.3C288,830.6,287.9,830.8,287.8,830.9L287.8,830.9z
		 M289.1,829.9l1.6,0.8l0.2-0.2l-0.6-0.3C290,830.1,289.6,829.8,289.1,829.9L289.1,829.9z"/>
	<path id="XMLID_136_" fill="#CCFF66" d="M270.3,809.2l-3.1,6.5h1l-0.2,0.5h-1l-0.7,1.5h1l-0.2,0.5h-1l-1.1,2.3h-2.4
		c-1.5,0-2.8-0.1-2.2-2.3h-1l0.2-0.5h0.9c0.1-0.2,0.2-0.5,0.3-0.7c0.1-0.3,0.3-0.6,0.4-0.8h-0.9l0.2-0.5h1c1.3-2,2.8-2.3,4.2-2.3h1
		l2-4.2H270.3z M264.5,818.2h-2.2c0.2,0.4,0.8,0.4,1.4,0.4h0.7L264.5,818.2z M262.2,817.7h2.6l0.7-1.5h-2.6
		c-0.1,0.2-0.3,0.5-0.5,0.8C262.3,817.3,262.2,817.5,262.2,817.7L262.2,817.7z M263.4,815.7h2.2l0.2-0.4H265
		C264.6,815.4,264,815.4,263.4,815.7L263.4,815.7z"/>
</g>
<g id="XMLID_274_">
	<path id="XMLID_140_" fill-rule="evenodd" clip-rule="evenodd" fill="#CCFF66" d="M741.4,284.8c5.3-0.5,10.4,0.8,15.7-1.5
		c-5.8-15.4-3-58-10.8-74.5c-5.5,9.3-13.3,16.3-20,24.4C738.4,243.6,736.4,267.6,741.4,284.8L741.4,284.8z"/>
	<path id="XMLID_141_" fill-rule="evenodd" clip-rule="evenodd" fill="#669933" d="M744,282.6c1,0,2,0,3,0c2,0.1,4.1,0.1,6.2-0.2
		c0.1-0.7,0.2-1.5,0.4-2.2c0.2-1,0.6-2,1-2.7c-0.7-3.9-1.2-8.3-1.6-12.7c-0.8-8.4-1.2-17.4-1.9-25.9c-0.7-8.6-1.7-17-3.5-23.3
		c-0.8,0.8-1.8,0.9-2.6,0.3c-0.5-0.3-0.8-0.8-1.1-1.4c-1.2,1.7-2.5,3.3-3.7,4.8c-2.3,2.8-4.7,5.4-7,7.9c-1.1,1.2-2.1,2.3-3.1,3.5
		c0.2,1.2,0.2,2.6,0,4c2,2.7,3.7,6.2,5.1,10.9c1.6,5.5,2.6,12,3.5,19c0.7,5.4,1.5,10.5,2.5,15c0.4,0,0.8,0.1,1.3,0.4
		C743.1,280.6,743.6,281.5,744,282.6L744,282.6z"/>
	<path id="XMLID_142_" fill-rule="evenodd" clip-rule="evenodd" fill="#CCFF66" d="M741.7,264.4c-3.1-2.3-4.4-9.3-2.9-15.8
		c1.5-6.5,5.2-9.9,8.3-7.6c3.1,2.3,4.4,9.3,2.9,15.8C748.5,263.2,744.8,266.6,741.7,264.4L741.7,264.4z"/>
	<path id="XMLID_144_" fill="#CCFF66" d="M750,277l-3.3,0.6l0.2,1.1l-0.2,0.1l-0.2-1.2l-0.8,0.1l0.2,1.1l-0.2,0l-0.2-1.1l-1.2,0.2
		l-0.5-2.8c-0.3-1.7-0.6-3.3,0.5-3.9l-0.2-1.1l0.2,0l0.2,1c0.1,0,0.2-0.1,0.4-0.1c0.1,0,0.3,0,0.4,0L745,270l0.2,0l0.2,1.2
		c1.1,0.2,1.5,1.8,1.8,3.4l0.2,1.1l2.2-0.4L750,277z M745.1,276l-0.5-2.6c-0.1,0.5,0,1.2,0.1,1.8l0.2,0.8L745.1,276z M744.8,273
		l0.6,2.9l0.8-0.1l-0.6-2.9c-0.1-0.1-0.2-0.1-0.4-0.1C745,272.9,744.9,273,744.8,273L744.8,273z M745.8,273.2l0.5,2.6l0.2,0
		l-0.2-0.9C746.2,274.3,746.1,273.6,745.8,273.2L745.8,273.2z"/>
	<path id="XMLID_149_" fill="#CCFF66" d="M745.5,229l-4.6,4.6l0.5,1l-0.3,0.4l-0.5-1l-1,1l0.5,1l-0.4,0.3l-0.5-1l-1.6,1.6l-1.3-2.5
		c-0.7-1.5-1.4-3.1-0.1-4.9l-0.5-1l0.3-0.4l0.5,0.9c0.1-0.2,0.3-0.3,0.5-0.5c0.2-0.2,0.4-0.4,0.6-0.5l-0.5-1l0.4-0.3l0.5,1
		c1.6-1,2.5,0.2,3.2,1.7l0.5,1l3-3L745.5,229z M738.4,233.8l-1.2-2.4c0,0.7,0.3,1.3,0.6,1.9l0.4,0.8L738.4,233.8z M737.5,230.8
		l1.3,2.7l1-1l-1.3-2.7c-0.2,0.1-0.4,0.2-0.6,0.4C737.7,230.3,737.6,230.5,737.5,230.8L737.5,230.8z M739,229.7l1.2,2.3l0.2-0.2
		l-0.4-0.8C739.8,230.4,739.4,229.8,739,229.7L739,229.7z"/>
</g>
<g id="XMLID_262_">
	<path id="XMLID_153_" fill-rule="evenodd" clip-rule="evenodd" fill="#CCFF66" d="M1233.7,785.4c3-4.3,7.3-7.5,9-13
		c-15.5-5.4-46.5-34.8-64.2-39.4c3.6,10.2,4,20.7,6,31C1200.1,761.3,1217.3,778.3,1233.7,785.4L1233.7,785.4z"/>
	<path id="XMLID_154_" fill-rule="evenodd" clip-rule="evenodd" fill="#669933" d="M1233.6,782c0.6-0.8,1.3-1.5,1.9-2.3
		c1.4-1.5,2.7-3.1,3.9-4.9c-0.5-0.5-1.1-1-1.5-1.6c-0.7-0.9-1.2-1.8-1.4-2.5c-3.5-2-7.1-4.4-10.8-6.9c-7-4.8-14.1-10.2-21.1-15.1
		c-7.1-5-14.1-9.6-20.2-12.2c0,1.1-0.4,1.9-1.4,2.2c-0.5,0.1-1.1,0.1-1.8-0.1c0.5,2.1,1,4,1.3,5.9c0.7,3.6,1.2,7,1.6,10.4
		c0.2,1.5,0.4,3.1,0.7,4.7c1.1,0.6,2.2,1.5,3.1,2.5c3.3,0.2,7.1,1.1,11.6,3.1c5.3,2.3,10.9,5.7,16.8,9.5c4.6,2.9,9,5.6,13.2,7.7
		c0.2-0.3,0.6-0.6,1.1-0.7C1231.5,781.4,1232.6,781.5,1233.6,782L1233.6,782z"/>
	<path id="XMLID_155_" fill-rule="evenodd" clip-rule="evenodd" fill="#CCFF66" d="M1218.2,772.1c-3.7,0.9-10-2.6-14-7.9
		c-4-5.3-4.3-10.3-0.6-11.3c3.7-0.9,10,2.6,14,7.9C1221.7,766.1,1221.9,771.2,1218.2,772.1L1218.2,772.1z"/>
	<path id="XMLID_157_" fill="#CCFF66" d="M1233.2,773.7l-1.7,2.9l1,0.6l-0.1,0.2l-1-0.5l-0.4,0.7l1,0.6l-0.1,0.2l-1-0.6l-0.6,1
		l-2.4-1.4c-1.5-0.8-2.9-1.6-2.7-2.8l-1-0.6l0.1-0.2l0.9,0.5c0-0.1,0.1-0.2,0.2-0.3c0.1-0.1,0.1-0.2,0.2-0.4l-1-0.5l0.1-0.2l1,0.6
		c0.9-0.7,2.3-0.1,3.8,0.7l1,0.6l1.1-1.9L1233.2,773.7z M1229.3,776.9l-2.3-1.3c0.3,0.4,1,0.7,1.5,1l0.7,0.4L1229.3,776.9z
		 M1226.8,775.3l2.6,1.4l0.4-0.7l-2.6-1.4c-0.1,0.1-0.2,0.1-0.3,0.3C1226.8,775,1226.8,775.1,1226.8,775.3L1226.8,775.3z
		 M1227.7,774.5l2.3,1.3l0.1-0.1l-0.8-0.5C1228.7,774.9,1228.2,774.6,1227.7,774.5L1227.7,774.5z"/>
	<path id="XMLID_162_" fill="#CCFF66" d="M1193.5,746.5l0.6,6.4l1.1,0.2l0,0.5l-1.1-0.2l0.1,1.5l1.1,0.2l0,0.5l-1.1-0.2l0.2,2.2
		l-2.7-0.6c-1.7-0.4-3.3-0.9-3.8-3.1l-1.1-0.3l0-0.5l1.1,0.2c0-0.2-0.1-0.5-0.1-0.7c0-0.3,0-0.5,0-0.8l-1.1-0.2l0-0.5l1.1,0.3
		c0.3-1.9,1.8-1.8,3.4-1.4l1.1,0.2l-0.3-4.2L1193.5,746.5z M1192.6,755l-2.6-0.6c0.5,0.5,1.2,0.6,1.8,0.8l0.8,0.2L1192.6,755z
		 M1189.6,753.8l2.9,0.7l-0.1-1.5l-2.9-0.7c-0.1,0.2-0.1,0.4-0.1,0.7S1189.5,753.6,1189.6,753.8L1189.6,753.8z M1189.8,751.9
		l2.5,0.6l0-0.3l-0.9-0.2C1190.8,751.8,1190.2,751.7,1189.8,751.9L1189.8,751.9z"/>
</g>
<g id="XMLID_264_">
	<path id="XMLID_166_" fill-rule="evenodd" clip-rule="evenodd" fill="#CCFF66" d="M823.5,864.8c1.7-2.5,4.2-4.3,5.1-7.5
		c-8.9-3.1-26.7-20-36.8-22.6c2.1,5.9,2.3,11.9,3.4,17.8C804.3,851,814.1,860.7,823.5,864.8L823.5,864.8z"/>
	<path id="XMLID_167_" fill-rule="evenodd" clip-rule="evenodd" fill="#669933" d="M823.5,862.9c0.3-0.5,0.7-0.9,1.1-1.3
		c0.8-0.9,1.5-1.8,2.2-2.8c-0.3-0.3-0.6-0.6-0.8-0.9c-0.4-0.5-0.6-1-0.8-1.4c-2-1.2-4.1-2.6-6.2-4c-4-2.8-8.1-5.8-12.1-8.6
		c-4.1-2.9-8.1-5.5-11.5-7c0,0.6-0.2,1.1-0.8,1.3c-0.3,0.1-0.6,0-1,0c0.3,1.2,0.6,2.3,0.8,3.4c0.4,2.1,0.7,4,0.9,6
		c0.1,0.9,0.2,1.8,0.4,2.7c0.6,0.4,1.3,0.9,1.8,1.5c1.9,0.1,4.1,0.7,6.7,1.8c3,1.3,6.3,3.3,9.7,5.4c2.6,1.6,5.1,3.2,7.5,4.4
		c0.1-0.2,0.4-0.3,0.6-0.4C822.3,862.5,822.9,862.6,823.5,862.9L823.5,862.9z"/>
	<path id="XMLID_168_" fill-rule="evenodd" clip-rule="evenodd" fill="#CCFF66" d="M814.7,857.2c-2.1,0.5-5.7-1.5-8.1-4.6
		c-2.3-3-2.4-5.9-0.3-6.5c2.1-0.5,5.7,1.5,8,4.5C816.6,853.7,816.8,856.6,814.7,857.2L814.7,857.2z"/>
	<path id="XMLID_170_" fill="#CCFF66" d="M823.2,858.1l-1,1.7l0.6,0.3l-0.1,0.1l-0.6-0.3l-0.2,0.4l0.6,0.3l-0.1,0.1l-0.6-0.3
		l-0.4,0.6l-1.4-0.8c-0.8-0.5-1.6-1-1.5-1.6l-0.6-0.3l0.1-0.1l0.5,0.3c0-0.1,0.1-0.1,0.1-0.2c0-0.1,0.1-0.1,0.1-0.2l-0.6-0.3
		l0.1-0.1l0.6,0.3c0.5-0.4,1.4,0,2.2,0.4l0.6,0.3l0.6-1.1L823.2,858.1z M821,859.9l-1.3-0.7c0.2,0.2,0.5,0.5,0.8,0.6l0.4,0.2
		L821,859.9z M819.6,859l1.5,0.8l0.2-0.4l-1.5-0.8c-0.1,0-0.1,0.1-0.2,0.2C819.6,858.8,819.6,858.9,819.6,859L819.6,859z
		 M820.1,858.5l1.3,0.7l0.1-0.1l-0.5-0.2C820.7,858.8,820.3,858.6,820.1,858.5L820.1,858.5z"/>
	<path id="XMLID_175_" fill="#CCFF66" d="M800.5,842.5l0.3,3.7l0.6,0.1l0,0.3l-0.7-0.1l0.1,0.8l0.6,0.2l0,0.3l-0.7-0.2l0.1,1.3
		l-1.6-0.4c-0.9-0.2-1.9-0.5-2.2-1.8l-0.7-0.2v-0.3l0.6,0.1c0-0.1,0-0.2-0.1-0.4c0-0.2,0-0.3,0-0.5l-0.6-0.1l0-0.3l0.7,0.1
		c0.1-1,1-1,1.9-0.8l0.6,0.1l-0.2-2.4L800.5,842.5z M799.9,847.3l-1.5-0.3c0.3,0.3,0.7,0.3,1,0.4l0.5,0.1L799.9,847.3z M798.2,846.7
		l1.7,0.4l-0.1-0.9l-1.6-0.4c0,0.1,0,0.2,0,0.4C798.2,846.4,798.2,846.5,798.2,846.7L798.2,846.7z M798.3,845.6l1.5,0.3l0-0.2
		l-0.5-0.1C798.9,845.5,798.6,845.5,798.3,845.6L798.3,845.6z"/>
</g>
<path id="XMLID_179_" fill-rule="evenodd" clip-rule="evenodd" fill="#CCFF66" d="M538.8,199.6c-0.2-6.7-1.4-13.2-0.6-20.1
	c9.1,6.8,32.6,1.7,42.5,11c-4.7,7.4-7.9,17.6-11.9,26.4C562,201.8,548.8,205.3,538.8,199.6L538.8,199.6z"/>
<path id="XMLID_180_" fill-rule="evenodd" clip-rule="evenodd" fill="#669933" d="M539.8,196.2c-0.1-1.3-0.2-2.6-0.2-3.8
	c-0.2-2.6-0.4-5.3-0.5-7.9c0.4-0.1,0.8-0.2,1.2-0.5c0.6-0.4,1-0.8,1.4-1.4c2.2,0.7,4.8,1.2,7.2,1.5c4.8,0.6,9.8,0.8,14.6,1.4
	c4.8,0.6,9.6,1.5,13.3,3.6c-0.4,1.1-0.4,2.3,0.1,3.3c0.2,0.5,0.5,1,0.8,1.3c-0.8,1.6-1.6,3.3-2.3,4.9c-1.4,3.1-2.6,6.1-3.9,9.2
	c-0.6,1.4-1.1,2.8-1.7,4.1c-0.7-0.2-1.5-0.2-2.2,0.1c-1.6-2.4-3.8-4.5-6.5-6.1c-3.2-1.9-7-2.8-10.9-3.8c-3-0.7-6-1.5-8.6-2.6
	c0-0.6-0.1-1.1-0.3-1.6C541,197.2,540.4,196.6,539.8,196.2L539.8,196.2z"/>
<path id="XMLID_181_" fill-rule="evenodd" clip-rule="evenodd" fill="#CCFF66" d="M550.1,198.4c1.5,3.8,5.6,5.2,9.1,3.1
	c3.5-2.2,5.1-7,3.6-10.9c-1.5-3.8-5.6-5.2-9.1-3.1C550.2,189.7,548.6,194.5,550.1,198.4L550.1,198.4z"/>
<path id="XMLID_183_" fill="#CCFF66" d="M542.4,188.3v4.3l-0.7-0.2v0.3l0.7,0.2v1l-0.7-0.2v0.3l0.7,0.2l0,1.5l1.6,0.6
	c0.9,0.3,1.9,0.6,2.1-0.7l0.7,0.2v-0.4l-0.6-0.2c0-0.1,0-0.3,0-0.5c0-0.2,0-0.4,0-0.5l0.6,0.2v-0.3l-0.7-0.2c-0.2-1.4-1.1-1.9-2-2.2
	l-0.7-0.2l0-2.8L542.4,188.3z M543.4,194.5l1.5,0.5c-0.2,0.2-0.7,0-1-0.1l-0.5-0.1V194.5z M545.1,194.8l-1.7-0.6v-1l1.7,0.6
	c0,0.1,0.1,0.3,0.1,0.5C545.1,194.5,545.1,194.7,545.1,194.8L545.1,194.8z M544.8,193.4l-1.5-0.5v-0.2l0.6,0.2
	C544.2,193,544.6,193.1,544.8,193.4L544.8,193.4z"/>
<path id="XMLID_188_" fill="#CCFF66" d="M569.5,192.2l-2.1,5.9l-0.6-0.6l-0.2,0.5l0.6,0.6l-0.5,1.4l-0.6-0.6l-0.2,0.5l0.6,0.6
	l-0.8,2.1l1.5,1.5c0.9,0.9,1.8,1.7,2.7-0.1l0.6,0.6l0.2-0.5l-0.6-0.6c0.1-0.2,0.2-0.4,0.2-0.6c0.1-0.2,0.2-0.5,0.2-0.7l0.6,0.6
	l0.1-0.5l-0.6-0.6c0.4-2-0.3-3.1-1.2-4l-0.6-0.6l1.4-3.9L569.5,192.2z M567.5,201.4l1.4,1.4c-0.4,0.1-0.8-0.3-1.1-0.6l-0.5-0.5
	L567.5,201.4z M569.3,202.5l-1.6-1.6l0.5-1.4l1.6,1.6c0,0.2-0.1,0.5-0.2,0.8C569.5,202.2,569.4,202.4,569.3,202.5L569.3,202.5z
	 M569.7,200.5l-1.4-1.4l0.1-0.3l0.5,0.5C569.3,199.6,569.6,200,569.7,200.5L569.7,200.5z"/>
<g id="XMLID_273_">
	<path id="XMLID_192_" fill-rule="evenodd" clip-rule="evenodd" fill="#CCFF66" d="M107.6,399.7c1.7-2.5,4.2-4.3,5.1-7.5
		c-8.9-3.1-26.7-19.9-36.9-22.6c2.1,5.9,2.3,11.9,3.4,17.8C88.3,385.8,98.1,395.6,107.6,399.7L107.6,399.7z"/>
	<path id="XMLID_193_" fill-rule="evenodd" clip-rule="evenodd" fill="#669933" d="M107.5,397.7c0.4-0.5,0.7-0.9,1.1-1.3
		c0.8-0.9,1.5-1.8,2.2-2.8c-0.3-0.3-0.6-0.6-0.8-0.9c-0.4-0.5-0.7-1-0.8-1.4c-2-1.2-4.1-2.6-6.2-4c-4-2.8-8.1-5.8-12.1-8.6
		c-4.1-2.8-8.1-5.5-11.6-7c0,0.6-0.2,1.1-0.8,1.3c-0.3,0.1-0.6,0-1,0c0.3,1.2,0.6,2.3,0.8,3.4c0.4,2.1,0.7,4,0.9,6
		c0.1,0.9,0.2,1.8,0.4,2.7c0.6,0.4,1.3,0.9,1.8,1.5c1.9,0.1,4.1,0.7,6.7,1.8c3,1.3,6.3,3.3,9.7,5.4c2.6,1.6,5.1,3.2,7.6,4.4
		c0.1-0.2,0.3-0.3,0.6-0.4C106.3,397.4,106.9,397.5,107.5,397.7L107.5,397.7z"/>
	<path id="XMLID_194_" fill-rule="evenodd" clip-rule="evenodd" fill="#CCFF66" d="M98.7,392c-2.1,0.5-5.7-1.5-8-4.6
		c-2.3-3-2.5-5.9-0.3-6.5c2.1-0.5,5.7,1.5,8,4.5C100.7,388.6,100.8,391.5,98.7,392L98.7,392z"/>
	<path id="XMLID_196_" fill="#CCFF66" d="M107.3,393l-1,1.7l0.6,0.3l-0.1,0.1l-0.6-0.3l-0.2,0.4l0.6,0.3l-0.1,0.1l-0.6-0.3l-0.4,0.6
		l-1.4-0.8c-0.9-0.5-1.6-1-1.5-1.6l-0.6-0.3l0.1-0.1l0.6,0.3c0-0.1,0-0.1,0.1-0.2c0.1-0.1,0.1-0.1,0.1-0.2l-0.5-0.3l0.1-0.1l0.6,0.3
		c0.5-0.4,1.3,0,2.2,0.4l0.6,0.3l0.7-1.1L107.3,393z M105,394.8l-1.3-0.7c0.2,0.2,0.6,0.5,0.8,0.6l0.4,0.2L105,394.8z M103.6,393.9
		l1.5,0.8l0.2-0.4l-1.5-0.8c-0.1,0-0.1,0.1-0.2,0.2C103.6,393.7,103.6,393.8,103.6,393.9L103.6,393.9z M104.1,393.4l1.3,0.7l0.1-0.1
		l-0.5-0.2C104.7,393.7,104.4,393.5,104.1,393.4L104.1,393.4z"/>
	<path id="XMLID_201_" fill="#CCFF66" d="M84.5,377.4l0.3,3.7l0.6,0.1l0,0.3l-0.6-0.1l0.1,0.8l0.6,0.2l0,0.3l-0.6-0.2l0.1,1.3
		l-1.6-0.4c-0.9-0.2-1.9-0.5-2.2-1.8l-0.6-0.2l0-0.3l0.6,0.1c0-0.1,0-0.2,0-0.4c0-0.2,0-0.3,0-0.5l-0.6-0.1l0-0.3l0.7,0.2
		c0.1-1.1,1-1,1.9-0.8l0.6,0.1l-0.2-2.4L84.5,377.4z M84,382.2l-1.5-0.3c0.3,0.3,0.7,0.3,1,0.4l0.5,0.1V382.2z M82.3,381.6l1.7,0.4
		l-0.1-0.9l-1.7-0.4c0,0.1,0,0.2,0,0.4C82.2,381.3,82.2,381.4,82.3,381.6L82.3,381.6z M82.4,380.5l1.4,0.4v-0.2l-0.6-0.1
		C83,380.4,82.6,380.3,82.4,380.5L82.4,380.5z"/>
</g>
<g id="XMLID_275_">
	<path id="XMLID_205_" fill-rule="evenodd" clip-rule="evenodd" fill="#CCFF66" d="M900.2,221.9c1.7-2.5,4.2-4.3,5.1-7.5
		c-8.9-3.1-26.7-19.9-36.8-22.6c2.1,5.9,2.3,11.9,3.4,17.8C881,208,890.8,217.8,900.2,221.9L900.2,221.9z"/>
	<path id="XMLID_206_" fill-rule="evenodd" clip-rule="evenodd" fill="#669933" d="M900.2,219.9c0.4-0.5,0.8-0.9,1.1-1.3
		c0.8-0.9,1.6-1.8,2.2-2.8c-0.3-0.3-0.6-0.6-0.8-0.9c-0.4-0.5-0.7-1-0.8-1.4c-2-1.2-4.1-2.6-6.2-4c-4-2.8-8.1-5.8-12.1-8.6
		c-4.1-2.8-8.1-5.5-11.6-7c0,0.6-0.2,1.1-0.8,1.3c-0.3,0.1-0.7,0-1,0c0.3,1.2,0.6,2.3,0.8,3.4c0.4,2.1,0.7,4,0.9,6
		c0.1,0.9,0.2,1.8,0.4,2.7c0.6,0.4,1.2,0.9,1.8,1.5c1.9,0.1,4.1,0.7,6.7,1.8c3,1.3,6.2,3.3,9.7,5.4c2.6,1.6,5.1,3.2,7.5,4.4
		c0.1-0.2,0.3-0.3,0.6-0.4C899,219.6,899.6,219.7,900.2,219.9L900.2,219.9z"/>
	<path id="XMLID_207_" fill-rule="evenodd" clip-rule="evenodd" fill="#CCFF66" d="M891.3,214.2c-2.1,0.5-5.7-1.5-8-4.6
		c-2.3-3-2.5-5.9-0.3-6.5c2.1-0.5,5.7,1.5,8,4.5C893.3,210.8,893.5,213.7,891.3,214.2L891.3,214.2z"/>
	<path id="XMLID_209_" fill="#CCFF66" d="M900,215.2l-1,1.7l0.6,0.3l-0.1,0.1l-0.6-0.3l-0.2,0.4l0.6,0.3l-0.1,0.1l-0.6-0.3l-0.3,0.6
		l-1.4-0.8c-0.8-0.5-1.6-1-1.5-1.6l-0.6-0.3l0.1-0.1l0.5,0.3c0-0.1,0.1-0.1,0.1-0.2c0-0.1,0.1-0.1,0.1-0.2l-0.6-0.3l0.1-0.1l0.6,0.3
		c0.5-0.4,1.3,0,2.2,0.4l0.6,0.3l0.6-1.1L900,215.2z M897.7,217l-1.3-0.7c0.2,0.2,0.6,0.5,0.8,0.6l0.5,0.2L897.7,217z M896.3,216.1
		l1.5,0.8l0.2-0.4l-1.5-0.8c-0.1,0-0.1,0.1-0.2,0.2C896.3,215.9,896.3,216,896.3,216.1L896.3,216.1z M896.8,215.6l1.3,0.7l0-0.1
		l-0.5-0.2C897.4,215.9,897,215.7,896.8,215.6L896.8,215.6z"/>
	<path id="XMLID_214_" fill="#CCFF66" d="M877.2,199.6l0.3,3.7l0.7,0.1v0.3l-0.6-0.1l0.1,0.8l0.7,0.2v0.3l-0.6-0.2l0.1,1.3l-1.6-0.4
		c-0.9-0.2-1.9-0.5-2.2-1.8l-0.6-0.2l0-0.3l0.6,0.1c0-0.1-0.1-0.2-0.1-0.4c0-0.2,0-0.3,0-0.5l-0.6-0.1v-0.3l0.6,0.2
		c0.1-1.1,1-1.1,1.9-0.8l0.6,0.1l-0.2-2.4L877.2,199.6z M876.6,204.4l-1.5-0.3c0.3,0.3,0.7,0.3,1,0.4l0.5,0.1L876.6,204.4z
		 M875,203.8l1.6,0.4l-0.1-0.9l-1.6-0.4c0,0.1-0.1,0.2,0,0.4C874.9,203.5,874.9,203.6,875,203.8L875,203.8z M875.1,202.7l1.4,0.4
		v-0.2l-0.5-0.1C875.7,202.6,875.3,202.5,875.1,202.7L875.1,202.7z"/>
</g>
<g id="XMLID_256_">
	<path id="XMLID_218_" fill-rule="evenodd" clip-rule="evenodd" fill="#9A9A00" d="M387.1,212.6c1.9,1.8,0.4,6.6-3.5,10.9
		c-3.9,4.2-8.6,6.3-10.5,4.5c-0.9-0.9-1.6-1.5-2.6-2.3c-1.9-1.8-0.3-6.6,3.6-10.9c3.9-4.3,8.6-6.3,10.5-4.5
		C385.5,211.2,386.1,211.8,387.1,212.6L387.1,212.6z"/>
	<path id="XMLID_219_" fill-rule="evenodd" clip-rule="evenodd" fill="#FFFF00" d="M384.5,210.3c1.9,1.8,0.3,6.6-3.6,10.9
		c-3.9,4.2-8.6,6.3-10.5,4.5c-1.9-1.8-0.3-6.6,3.6-10.9C377.9,210.5,382.6,208.5,384.5,210.3L384.5,210.3z"/>
</g>
<g id="XMLID_276_">
	<path id="XMLID_220_" fill-rule="evenodd" clip-rule="evenodd" fill="#9A9A00" d="M711.3,305.8c-0.9,2.4-6,2.8-11.4,0.7
		c-5.4-2-9-5.6-8.1-8.1c0.5-1.2,0.8-2,1.2-3.3c0.9-2.4,6-2.8,11.4-0.7c5.4,2,9,5.6,8.1,8.1C712.1,303.7,711.8,304.5,711.3,305.8
		L711.3,305.8z"/>
	<path id="XMLID_221_" fill-rule="evenodd" clip-rule="evenodd" fill="#FFFF00" d="M712.6,302.5c-0.9,2.4-6,2.8-11.4,0.7
		c-5.4-2-9-5.6-8.1-8.1c0.9-2.4,6-2.8,11.4-0.7C709.9,296.5,713.5,300.1,712.6,302.5L712.6,302.5z"/>
</g>
<g id="XMLID_270_">
	<path id="XMLID_222_" fill-rule="evenodd" clip-rule="evenodd" fill="#9A9A00" d="M663,669.5c-0.9,2.4-6,2.8-11.4,0.7
		c-5.4-2-9-5.6-8.1-8.1c0.5-1.2,0.8-2,1.2-3.3c0.9-2.4,6-2.8,11.4-0.7c5.4,2,9,5.6,8.1,8.1C663.8,667.5,663.5,668.3,663,669.5
		L663,669.5z"/>
	<path id="XMLID_223_" fill-rule="evenodd" clip-rule="evenodd" fill="#FFFF00" d="M664.2,666.3c-0.9,2.4-6,2.8-11.4,0.7
		c-5.4-2-9-5.6-8.1-8.1c0.9-2.4,6-2.8,11.4-0.7C661.5,660.2,665.2,663.8,664.2,666.3L664.2,666.3z"/>
</g>
<g id="XMLID_277_">
	<path id="XMLID_224_" fill-rule="evenodd" clip-rule="evenodd" fill="#9A9A00" d="M1033.7,329.4c0.2,5.7-9.9,10.7-22.6,11.2
		c-12.7,0.4-23.1-3.9-23.3-9.6c-0.1-2.8-0.2-4.8-0.3-7.7c-0.2-5.7,9.9-10.7,22.6-11.2c12.7-0.4,23.1,3.9,23.3,9.6
		C1033.5,324.6,1033.6,326.5,1033.7,329.4L1033.7,329.4z"/>
	<path id="XMLID_225_" fill-rule="evenodd" clip-rule="evenodd" fill="#FFFF00" d="M1033.4,321.8c0.2,5.7-9.9,10.7-22.6,11.2
		c-12.7,0.5-23.1-3.8-23.3-9.6c-0.2-5.7,9.9-10.7,22.6-11.2C1022.7,311.7,1033.2,316,1033.4,321.8L1033.4,321.8z"/>
</g>
<g id="XMLID_266_">
	<path id="XMLID_226_" fill-rule="evenodd" clip-rule="evenodd" fill="#9A9A00" d="M267.7,672.1c5.4,2.1,6,13.3,1.4,25.2
		c-4.5,11.8-12.6,19.7-17.9,17.7c-2.7-1-4.5-1.7-7.2-2.8c-5.4-2-6-13.3-1.4-25.1c4.5-11.9,12.6-19.8,18-17.7
		C263.2,670.4,265,671.1,267.7,672.1L267.7,672.1z"/>
	<path id="XMLID_227_" fill-rule="evenodd" clip-rule="evenodd" fill="#FFFF00" d="M260.5,669.4c5.4,2.1,6,13.3,1.4,25.2
		c-4.6,11.8-12.6,19.7-18,17.7c-5.4-2-6-13.3-1.4-25.1C247.1,675.2,255.2,667.3,260.5,669.4L260.5,669.4z"/>
</g>
<g id="XMLID_260_">
	<path id="XMLID_228_" fill-rule="evenodd" clip-rule="evenodd" fill="#9A9A00" d="M986.6,842.2c-5.4,2.1-6,13.3-1.5,25.2
		c4.6,11.8,12.6,19.7,18,17.7c2.7-1,4.5-1.7,7.1-2.7c5.4-2.1,6-13.3,1.5-25.2s-12.6-19.8-18-17.7
		C991.1,840.5,989.3,841.2,986.6,842.2L986.6,842.2z"/>
	<path id="XMLID_229_" fill-rule="evenodd" clip-rule="evenodd" fill="#FFFF00" d="M993.8,839.5c-5.4,2.1-6,13.3-1.5,25.2
		c4.6,11.9,12.6,19.8,18,17.7s6-13.3,1.5-25.2S999.1,837.4,993.8,839.5L993.8,839.5z"/>
</g>
<g id="XMLID_269_">
	<path id="XMLID_230_" fill-rule="evenodd" clip-rule="evenodd" fill="#9A9A00" d="M639,814.2c-0.9,2.4-6,2.8-11.4,0.7
		c-5.4-2-9-5.6-8.1-8.1c0.5-1.2,0.8-2,1.2-3.3c0.9-2.5,6-2.8,11.4-0.7c5.4,2,9,5.6,8.1,8.1C639.7,812.1,639.4,812.9,639,814.2
		L639,814.2z"/>
	<path id="XMLID_231_" fill-rule="evenodd" clip-rule="evenodd" fill="#FFFF00" d="M640.2,810.9c-0.9,2.4-6,2.8-11.4,0.7
		c-5.4-2-9-5.6-8.1-8.1s6-2.8,11.4-0.7C637.5,804.9,641.1,808.5,640.2,810.9L640.2,810.9z"/>
</g>
<g id="XMLID_257_">
	<path id="XMLID_232_" fill-rule="evenodd" clip-rule="evenodd" fill="#9A9A00" d="M107.4,695.6c-0.9,2.5-6,2.8-11.4,0.7
		c-5.4-2-9-5.6-8.1-8.1c0.5-1.2,0.8-2,1.2-3.3c0.9-2.4,6-2.8,11.4-0.7c5.4,2,9,5.6,8.1,8.1C108.2,693.6,107.9,694.4,107.4,695.6
		L107.4,695.6z"/>
	<path id="XMLID_233_" fill-rule="evenodd" clip-rule="evenodd" fill="#FFFF00" d="M108.6,692.4c-0.9,2.5-6,2.8-11.4,0.7
		c-5.4-2-9-5.6-8.1-8.1c0.9-2.4,6-2.8,11.4-0.7C105.9,686.3,109.6,689.9,108.6,692.4L108.6,692.4z"/>
</g>
<g id="XMLID_261_">
	<path id="XMLID_234_" fill-rule="evenodd" clip-rule="evenodd" fill="#9A9A00" d="M1290.9,540c-0.9,2.5-6,2.8-11.4,0.7
		c-5.4-2-9-5.6-8.1-8.1c0.5-1.2,0.8-2,1.2-3.3c0.9-2.4,6-2.8,11.4-0.7c5.4,2,9,5.6,8.1,8.1C1291.7,538,1291.4,538.8,1290.9,540
		L1290.9,540z"/>
	<path id="XMLID_235_" fill-rule="evenodd" clip-rule="evenodd" fill="#FFFF00" d="M1292.1,536.8c-0.9,2.5-6,2.8-11.4,0.7
		c-5.4-2-9-5.6-8.1-8.1c0.9-2.4,6-2.8,11.4-0.7C1289.4,530.7,1293,534.3,1292.1,536.8L1292.1,536.8z"/>
</g>
<g id="XMLID_1_">
	<path id="XMLID_236_" fill-rule="evenodd" clip-rule="evenodd" fill="#9A9A00" d="M1230.4,208.7c-0.9,2.4-6,2.8-11.4,0.8
		c-5.4-2-9-5.7-8.1-8.1c0.5-1.2,0.8-2.1,1.2-3.3c0.9-2.4,6-2.8,11.4-0.7c5.4,2,9,5.6,8.1,8.1
		C1231.2,206.7,1230.8,207.6,1230.4,208.7L1230.4,208.7z"/>
	<path id="XMLID_237_" fill-rule="evenodd" clip-rule="evenodd" fill="#FFFF00" d="M1231.6,205.5c-0.9,2.4-6,2.8-11.4,0.7
		c-5.4-2-9-5.6-8.1-8.1c0.9-2.4,6-2.8,11.4-0.7C1228.9,199.4,1232.5,203.1,1231.6,205.5L1231.6,205.5z"/>
</g>
<g id="XMLID_271_">
	<path id="XMLID_238_" fill-rule="evenodd" clip-rule="evenodd" fill="#CCFF66" d="M567.4,80.5c1.7-2.5,4.2-4.3,5.1-7.5
		c-8.9-3.1-26.7-19.9-36.9-22.6c2.1,5.8,2.3,11.8,3.4,17.8C548.2,66.7,558,76.4,567.4,80.5L567.4,80.5z"/>
	<path id="XMLID_239_" fill-rule="evenodd" clip-rule="evenodd" fill="#669933" d="M567.4,78.6c0.3-0.5,0.7-0.9,1.1-1.3
		c0.8-0.9,1.6-1.8,2.2-2.8c-0.3-0.3-0.6-0.6-0.8-0.9c-0.4-0.5-0.7-1-0.8-1.4c-2-1.1-4.1-2.5-6.2-4c-4-2.8-8.1-5.8-12.1-8.6
		c-4.1-2.8-8.1-5.5-11.6-7c0,0.6-0.2,1.1-0.8,1.3c-0.3,0.1-0.6,0-1,0c0.3,1.2,0.6,2.3,0.8,3.4c0.4,2,0.7,4,0.9,6
		c0.1,0.9,0.2,1.8,0.4,2.7c0.6,0.3,1.3,0.8,1.8,1.4c1.9,0.1,4.1,0.7,6.7,1.8c3,1.3,6.3,3.3,9.7,5.4c2.6,1.6,5.1,3.2,7.6,4.4
		c0.1-0.2,0.4-0.3,0.6-0.4C566.2,78.2,566.8,78.3,567.4,78.6L567.4,78.6z"/>
	<path id="XMLID_240_" fill-rule="evenodd" clip-rule="evenodd" fill="#CCFF66" d="M558.5,72.9c-2.1,0.5-5.7-1.5-8-4.6
		c-2.3-3-2.5-5.9-0.3-6.4c2.1-0.6,5.7,1.5,8,4.5C560.5,69.4,560.7,72.3,558.5,72.9L558.5,72.9z"/>
	<path id="XMLID_242_" fill="#CCFF66" d="M567.1,73.8l-1,1.7l0.6,0.3l-0.1,0.1l-0.6-0.3l-0.2,0.4l0.6,0.3l-0.1,0.1l-0.6-0.3
		l-0.4,0.6l-1.4-0.8c-0.9-0.5-1.6-0.9-1.5-1.6l-0.6-0.3l0.1-0.1l0.6,0.3c0,0,0-0.1,0.1-0.2c0.1-0.1,0.1-0.1,0.1-0.2l-0.5-0.3
		l0.1-0.1l0.6,0.3c0.5-0.4,1.3,0,2.2,0.5l0.6,0.3l0.7-1.1L567.1,73.8z M564.9,75.7l-1.3-0.7c0.2,0.2,0.6,0.4,0.8,0.6L564.9,75.7
		L564.9,75.7z M563.5,74.7l1.5,0.8l0.2-0.4l-1.5-0.8c-0.1,0-0.1,0.1-0.2,0.2C563.5,74.6,563.5,74.6,563.5,74.7L563.5,74.7z
		 M564,74.3l1.3,0.7l0.1-0.1l-0.5-0.3C564.5,74.5,564.2,74.3,564,74.3L564,74.3z"/>
	<path id="XMLID_247_" fill="#CCFF66" d="M544.4,58.2l0.3,3.7l0.6,0.2l0,0.3l-0.6-0.2l0.1,0.9l0.6,0.1l0,0.3l-0.6-0.1l0.1,1.3
		l-1.6-0.4c-0.9-0.2-1.9-0.5-2.2-1.8l-0.6-0.2l0-0.2l0.6,0.1c0-0.1,0-0.3,0-0.4c0-0.2,0-0.3,0-0.5l-0.6-0.1l0-0.3L541,61
		c0.1-1,1-1,1.9-0.8l0.6,0.1l-0.2-2.4L544.4,58.2z M543.8,63.1l-1.5-0.3c0.3,0.3,0.7,0.3,1,0.4l0.5,0.1V63.1z M542.1,62.4l1.7,0.4
		l-0.1-0.8l-1.7-0.4c0,0.1,0,0.2,0,0.4C542,62.1,542.1,62.3,542.1,62.4L542.1,62.4z M542.3,61.3l1.4,0.4v-0.2l-0.6-0.1
		C542.8,61.3,542.5,61.2,542.3,61.3L542.3,61.3z"/>
</g>
<g id="XMLID_255_">
	<path id="XMLID_251_" fill-rule="evenodd" clip-rule="evenodd" fill="#9A9A00" d="M829.9,90.7c-0.9,2.4-6,2.8-11.4,0.7
		s-9-5.6-8.1-8.1c0.5-1.2,0.8-2,1.2-3.3c0.9-2.4,6-2.8,11.4-0.7c5.4,2,9,5.6,8.1,8.1C830.7,88.7,830.4,89.5,829.9,90.7L829.9,90.7z"
		/>
	<path id="XMLID_252_" fill-rule="evenodd" clip-rule="evenodd" fill="#FFFF00" d="M831.1,87.5c-0.9,2.4-6,2.8-11.4,0.7
		c-5.4-2-9-5.6-8.1-8.1c0.9-2.4,6-2.8,11.4-0.7C828.5,81.4,832.1,85,831.1,87.5L831.1,87.5z"/>
</g>
<g id="XMLID_258_">
	<path id="XMLID_253_" fill-rule="evenodd" clip-rule="evenodd" fill="#9A9A00" d="M470.4,897.5c-0.9,2.4-6,2.8-11.4,0.7
		c-5.4-2-9-5.6-8.1-8.1c0.5-1.2,0.8-2,1.2-3.3c0.9-2.4,6-2.8,11.4-0.7c5.4,2,9,5.6,8.1,8.1C471.2,895.5,470.9,896.3,470.4,897.5
		L470.4,897.5z"/>
	<path id="XMLID_254_" fill-rule="evenodd" clip-rule="evenodd" fill="#FFFF00" d="M471.7,894.3c-0.9,2.5-6,2.8-11.4,0.7
		c-5.4-2-9-5.6-8.1-8.1c0.9-2.4,6-2.8,11.4-0.7C469,888.2,472.6,891.8,471.7,894.3L471.7,894.3z"/>
</g>
</svg>
